<svg xmlns="http://www.w3.org/2000/svg" viewBox="0 -1.1 169.9 169.9" width="256" height="256">
  <path fill="#000000" d="m 341.1555,542.73409 c -30.91663,-2.32852 -54.48207,-18.31715 -64.69507,-43.89415 -12.36468,-30.96556 12.86633,-61.52584 42.99153,-52.07217 13.61511,4.2726 23.78217,17.75395 25.80184,34.2128 2.05663,16.76003 9.43413,28.28013 22.18912,34.6487 10.22694,5.10632 24.26777,5.36235 34.56675,0.63033 5.60627,-2.57589 6.00092,-1.07021 1.07405,4.0978 -13.58278,14.24761 -40.53872,23.98767 -61.92822,22.37669 z m 40.74583,-27.52067 c -24.18447,-2.54185 -38.12614,-28.11401 -27.39039,-50.24015 2.31679,-4.77483 7.2377,-11.44752 10.08727,-13.67819 0.49443,-0.38704 1.25615,-1.02393 1.69271,-1.41531 0.43656,-0.39137 2.13079,-1.71979 3.76495,-2.95203 13.88494,-10.46991 20.04036,-26.90801 15.88153,-42.41176 -2.57219,-9.58892 -8.3073,-17.89911 -16.13775,-23.38368 -4.60082,-3.22248 -2.62346,-4.23359 4.66744,-2.38667 15.25444,3.86423 32.65461,16.90304 43.57712,32.65451 19.05551,27.48014 19.46964,61.99114 1.03769,86.47632 -9.39979,12.48678 -22.99814,18.82757 -37.18057,17.33696 z M 266.66847,479.24973 c -4.51457,-7.30473 -5.29319,-28.18874 -1.57297,-42.19 9.10126,-34.25309 32.13742,-56.587 63.09542,-61.17196 29.79922,-4.41334 53.64609,12.23562 53.70069,37.49176 0.0577,26.68861 -27.57193,42.62589 -53.87794,31.07778 -10.7932,-4.73812 -20.93387,-5.74791 -30.51566,-3.03868 -14.93451,4.2227 -26.58388,18.32072 -28.42728,34.40256 -0.50773,4.42953 -0.49024,4.36563 -1.19522,4.36563 -0.4336,0 -0.8071,-0.28998 -1.20704,-0.93709 z" transform="translate(-262.73124,-375.17916)"/>
</svg>
